<?xml version="1.0" encoding="utf-8"?>
<!-- Generator: Adobe Illustrator 25.4.1, SVG Export Plug-In . SVG Version: 6.00 Build 0)  -->
<svg version="1.1" id="Layer_1" xmlns="http://www.w3.org/2000/svg" xmlns:xlink="http://www.w3.org/1999/xlink" x="0px" y="0px"
	 viewBox="0 0 348 104" style="enable-background:new 0 0 348 104;" xml:space="preserve">
<style type="text/css">
	.st0{display:none;}
	.st1{display:inline;fill-rule:evenodd;clip-rule:evenodd;fill:#EC9829;}
	.st2{fill-rule:evenodd;clip-rule:evenodd;fill:#EC9829;}
	.st3{fill:#231F20;}
	.st4{fill:none;stroke:#231F20;stroke-width:0.5;stroke-miterlimit:10;}
</style>
<g class="st0">
	<path class="st1" d="M49,91.5c4.8-12.1,5.9-23.3,0.6-35c-1.1-2.4-2.5-5.1-4-7.2c-0.3-0.4-0.6-0.8-0.9-1.2c-0.6-0.8-1.5-2-0.4-1.6
		c0.2,0.1,0.6,0.3,0.9,0.5c0.6,0.5,1.2,0.9,1.7,1.5c10.1,9,17.3,24.3,12.6,43H49z"/>
	<path class="st1" d="M45.6,91.5c10.8-25.2-0.5-38.3-8.2-51.3c-3.5-6-6.7-12.3-5.4-18.4c0.5-2.5,1.5-5.4,3.8-7.6
		c0.5-0.5,1-0.9,1.4-1.3c0.5-0.6-0.4-0.7-2.2,0.5c-0.4,0.3-0.9,0.6-1.3,0.9c-8.2,7.7-6.6,18-2.7,27.2c5.8,13.5,14.8,26.2,1.2,50
		H45.6z"/>
</g>
<g class="st0">
	<path class="st1" d="M44.4,243.5c4.8-12.1,5.9-23.3,0.6-35c-1.1-2.4-2.5-5.1-4-7.2c-0.3-0.4-0.6-0.8-0.9-1.2
		c-0.6-0.8-1.5-2-0.4-1.6c0.2,0.1,0.6,0.3,0.9,0.5c0.6,0.5,1.2,0.9,1.7,1.5c10.1,9.1,17.2,24.4,12.6,43.1H44.4V243.5z"/>
	<path class="st1" d="M40.9,243.5c10.8-25.2-0.5-38.3-8.2-51.3c-3.5-6-6.7-12.3-5.4-18.4c0.5-2.5,1.5-5.4,3.8-7.6
		c0.5-0.5,1-0.9,1.4-1.3c0.5-0.6-0.4-0.7-2.2,0.5c-0.4,0.3-0.9,0.6-1.3,0.9c-8.3,7.6-6.7,17.9-2.7,27.1c5.8,13.5,14.8,26.2,1.2,50
		h13.4V243.5z"/>
</g>
<text transform="matrix(1 0 0 1 2.7969 199.1669)" style="display:none;fill:#231F20;enable-background:new    ; font-family:'Poppins-SemiBold'; font-size:31.141px;">miraa road</text>
<g>
	<g>
		<g>
			<path class="st2" d="M49,91.5c4.8-12.1,5.9-23.3,0.6-35c-1.1-2.4-2.5-5.1-4-7.2c-0.3-0.4-0.6-0.8-0.9-1.2c-0.6-0.8-1.5-2-0.4-1.6
				c0.2,0.1,0.6,0.3,0.9,0.5c0.6,0.5,1.2,0.9,1.7,1.5c10.1,9,17.3,24.3,12.6,43H49z"/>
			<path class="st2" d="M45.6,91.5c10.8-25.2-0.5-38.3-8.2-51.3c-3.5-6-6.7-12.3-5.4-18.4c0.5-2.5,1.5-5.4,3.8-7.6
				c0.5-0.5,1-0.9,1.4-1.3c0.5-0.6-0.4-0.7-2.2,0.5c-0.4,0.3-0.9,0.6-1.3,0.9c-8.2,7.7-6.6,18-2.7,27.2c5.8,13.5,14.8,26.2,1.2,50
				H45.6z"/>
		</g>
		<g>
			<path class="st3" d="M200.7,34.1h9c0-0.7-0.1-1.3-0.2-2.1c-0.1-0.8-0.3-1.6-0.7-2.4c-0.3-0.6-0.6-1.1-1.1-1.5
				c-0.6-0.5-1.4-0.6-1.9-0.6c-1.5,0-2.6,0.8-3.5,1.8C201.2,30.8,200.8,32.5,200.7,34.1 M240.7,15.6L240.7,15.6
				c-0.3-0.2-0.9-0.2-1.3-0.3c-0.6,0-1-0.1-1.5-0.1l-0.7-0.1v-2.9l9.4-0.6l0.8,0.8V36c0.8-0.9,1.7-1.8,2.6-2.9
				c1.1-1.3,2.4-2.4,3.4-3.7c0.1-0.2,0.2-0.3,0.3-0.6c0.1,0,0.1-0.1,0.1-0.2s-0.5-0.2-0.6-0.2c-0.6-0.2-1-0.3-1.7-0.5l-0.6-0.1v-2.9
				h11.3v2.7l-0.6,0.1c-1.1,0.5-2.3,0.9-3.3,1.6c-0.7,0.3-1.5,0.8-2.2,1.5c-0.6,0.5-1,0.9-1.4,1.5c-0.9,0.8-1.6,1.5-2.5,2.4
				c1.4,1.6,2.7,3.4,3.9,5.4c1.1,1.6,2.3,3.2,3.3,4.9c0.5,0.6,1.1,1.3,1.6,1.6c0.6,0.2,1.4,0.3,2.1,0.3l0.7,0.1v3h-8l-0.2-0.3
				c-1.3-1.9-2.5-3.8-3.8-5.7c-1.3-1.8-2.4-3.5-3.7-5.4l-1,1.1V45c0,0.5,0,0.8,0.2,1.1c0.1,0.2,0.3,0.5,0.6,0.5v0.1h0.1
				c0.2,0,0.6,0.1,0.9,0.2c0.3,0.1,0.7,0.1,1,0.1l0.7,0.1v3h-12.5v-3h0.6c0.5-0.1,0.8-0.1,1.1-0.2c0.2,0,0.6,0,0.8-0.1
				c0.3-0.1,0.5-0.1,0.7-0.5c0.1-0.2,0.2-0.7,0.2-1V18c0-0.6-0.1-0.9-0.3-1.4C241.3,16.1,240.9,15.8,240.7,15.6 M231,28.4
				c-0.2-0.2-0.5-0.5-0.8-0.6c-0.5-0.1-1-0.2-1.5-0.2c-0.7,0-1.3,0.2-1.7,0.5c-0.8,0.3-1.3,1-1.6,1.6c-0.7,0.9-0.9,1.9-1.1,3.1
				c-0.5,1.4-0.6,3.1-0.6,4.6c0,2.5,0.5,4.9,1.7,7c1,1.5,2.4,2.5,4.2,2.5c1.3,0,2.4-0.3,3.4-1c1.1-0.8,1.9-2.1,2.6-3.2l0.3-0.7
				l2.6,1.7l-0.2,0.6c-1.1,1.9-2.5,3.4-4.2,4.7c-1.7,1.1-3.5,1.7-5.5,1.7c-3.2,0-5.9-1-8.1-3.5c-2.3-2.7-3-6.2-3-9.6
				c0-1.6,0.2-3.2,0.8-4.8c0.6-1.6,1.3-3.1,2.3-4.2s2.2-2.2,3.5-2.9c1.5-0.9,3.1-1.3,4.7-1.3c2.1,0,4.1,0.6,5.8,1.8
				c1.5,1.4,2.3,3.1,2.3,5c0,0.9-0.2,1.7-0.7,2.5c-0.6,0.8-1.3,1.3-2.4,1.3c-1,0-1.8-0.2-2.5-1c-0.7-0.6-1-1.1-1-2.1
				c0-0.8,0.1-1.6,0.3-2.4C230.9,29.2,231,28.8,231,28.4 M200.7,37.4c0.1,1.3,0.2,2.4,0.5,3.4c0.2,1.1,0.7,2.3,1.3,3.1
				c0.6,0.9,1.1,1.5,2.1,1.9c1,0.6,2.1,0.8,3.1,0.8c1.1,0,2.3-0.2,3.3-0.9c1.1-0.7,1.9-2.2,2.6-3.3l0.3-0.7l2.7,1.7l-0.2,0.6
				c-1,1.9-2.3,3.7-4,4.8c-1.7,1.3-3.8,1.7-5.8,1.7c-1.8,0-3.5-0.2-5.1-1c-1.4-0.8-2.7-1.7-3.7-3c-0.9-1.3-1.6-2.7-2.1-4.2
				c-0.5-1.7-0.7-3.3-0.7-5.1c0-1.6,0.2-3.2,0.8-4.7c0.5-1.5,1.3-3,2.1-4.2c1-1.1,2.2-2.2,3.4-2.9c1.5-0.9,3.1-1.3,4.7-1.3
				c1.6,0,3.1,0.2,4.6,0.9c1.3,0.7,2.3,1.4,3.2,2.4c0.8,1,1.3,2.2,1.6,3.4c0.5,1.3,0.6,2.7,0.6,4.1v2.2h-15.2v0.3H200.7z
				 M181.2,28.8h-4v-3.7h4.1v-7.3h5.6v7.3h6.5v3.7h-6.5v12.5c0,0.8,0.1,1.6,0.1,2.4c0.1,0.6,0.2,1,0.5,1.5c0.2,0.3,0.6,0.6,0.9,0.8
				c0.5,0.2,1,0.2,1.6,0.2s1.1,0,1.6-0.1c0.5,0,1,0,1.4-0.2l0.9-0.3v3.2l-0.5,0.2c-0.8,0.5-1.8,0.8-2.9,1c-1,0.3-2.3,0.5-3.4,0.5
				c-1.6,0-3.5-0.3-4.5-1.7c-1-1.3-1.4-3.1-1.4-4.7L181.2,28.8L181.2,28.8z M159.7,31.7v13.4c0,0.3,0.1,0.7,0.2,1h0.1
				c0.1,0.2,0.3,0.3,0.7,0.6c0.2,0.1,0.6,0.1,0.9,0.2c0.3,0.1,0.8,0.1,1.1,0.1l0.6,0.1v3h-12.5v-3h0.7c0.3-0.1,0.7-0.1,1-0.1
				c0.2-0.1,0.6-0.1,0.8-0.2c0.3-0.1,0.5-0.1,0.7-0.5c0.1-0.2,0.2-0.7,0.2-1V30.9c0-0.5-0.1-0.9-0.3-1.3c-0.1-0.2-0.3-0.6-0.7-0.8
				c-0.2-0.1-0.6-0.2-0.8-0.3c-0.3-0.1-0.8-0.1-1.1-0.1l-0.7-0.1v-2.9l8.5-0.6l0.7,0.8v1.9c0.1-0.1,0.2-0.2,0.3-0.3
				c0.6-0.5,1.1-1,1.7-1.3c0.7-0.5,1.5-0.8,2.2-1.1c0.9-0.3,1.8-0.5,2.9-0.5c2.2,0,4.1,0.7,5.5,2.4c1.1,1.7,1.6,3.9,1.6,6.1V45
				c0,0.3,0,0.8,0.2,1c0.1,0.3,0.3,0.5,0.7,0.6c0.2,0.1,0.6,0.2,0.9,0.2c0.2,0.1,0.6,0.1,0.8,0.1l0.7,0.1v3H165v-3h0.7
				c0.3-0.1,0.8-0.1,1-0.1c0.3-0.1,0.7-0.1,0.9-0.2c0.3-0.1,0.6-0.1,0.7-0.5c0.1-0.2,0.2-0.7,0.2-1v-12c0-1.1-0.2-2.5-1-3.4
				c-0.7-0.7-1.3-1.1-2.3-1.1c-0.7,0-1.3,0.1-1.9,0.5c-0.6,0.2-1,0.5-1.6,0.8c-0.3,0.3-0.7,0.7-1,1
				C160.2,31.1,159.9,31.5,159.7,31.7 M140.1,43.7V30.6c0-0.3,0-0.8-0.2-1c-0.2-0.3-0.5-0.6-0.7-0.8c-0.2-0.1-0.7-0.2-1-0.2
				c-0.6,0-1-0.1-1.7-0.1h-0.7v-3l9.2-0.6l0.8,0.8v18.9c0,0.5,0.1,0.8,0.2,1c0.2,0.3,0.5,0.6,0.8,0.8c0.2,0.1,0.5,0.2,0.7,0.2
				c0.5,0.1,0.9,0.1,1.3,0.1h0.7v3l-8.2,0.6l-0.8-0.8v-1.7c-0.1,0.1-0.2,0.1-0.2,0.2c-0.6,0.6-1,1-1.7,1.3c-0.7,0.5-1.3,0.9-2.1,1.1
				c-1,0.3-2.1,0.3-3.1,0.3c-2.1,0-3.8-0.7-5.1-2.3c-1.4-1.7-1.6-4.2-1.6-6.3V30.8c0-0.5-0.1-0.9-0.3-1.3c-0.1-0.2-0.3-0.6-0.7-0.8
				c-0.2-0.1-0.6-0.2-0.8-0.2c-0.5-0.1-0.8-0.2-1.1-0.2h-0.7v-2.9l8.5-0.7l0.8,0.8v16.6c0,1.1,0.2,2.5,0.9,3.4
				c0.6,0.7,1.3,1.1,2.1,1.1c0.7,0,1.4-0.1,1.9-0.3c0.6-0.2,1-0.6,1.5-0.9c0.3-0.3,0.7-0.6,1-0.9C139.9,44.2,140.1,44.1,140.1,43.7
				 M116.3,16l0.8-1.3h3l0.2,12.6h-3.1l-0.2-0.6c-0.3-1.1-0.7-2.4-1-3.5c-0.5-1.1-1-2.1-1.6-3.1c-0.6-0.9-1.3-1.5-2.2-1.9
				c-0.9-0.6-1.9-0.8-3.1-0.8c-1.3,0-2.3,0.5-3.2,1.3c-1,0.8-1.4,1.7-1.4,3.1c0,1,0.2,2.3,0.9,3.3c0.8,0.9,1.6,1.6,2.6,2.1
				c1.1,0.6,2.2,1.1,3.3,1.5c1.1,0.3,2.2,0.8,3.2,1.3c0.9,0.5,1.8,1,2.9,1.5c0.8,0.6,1.6,1.1,2.3,1.9c0.8,0.9,1.3,1.8,1.6,3
				c0.5,1.1,0.6,2.3,0.6,3.4c0,3.2-1,5.7-3.4,7.9s-5.3,3.1-8.4,3.1c-1.6,0-3-0.2-4.6-0.7c-1.3-0.5-2.3-0.9-3.3-1.5l-0.9,1.5h-3
				l-0.6-12.9h3.1l0.1,0.6c0.5,1.3,0.9,2.6,1.4,3.8c0.5,1.1,1.1,2.1,1.8,3.1c0.7,0.9,1.6,1.6,2.6,2.2c0.9,0.5,2.2,0.7,3.3,0.7
				c0.9,0,1.7-0.1,2.5-0.3c0.7-0.2,1.1-0.6,1.6-1c0.5-0.5,0.8-0.9,1-1.6c0.2-0.7,0.3-1.4,0.3-2.2c0-1.3-0.3-2.4-1-3.4
				c-0.8-1.3-1.7-1.9-3-2.4c-1.3-0.6-2.3-1-3.5-1.4c-1-0.5-2.2-0.9-3.3-1.5c-1.7-0.8-3.3-1.9-4.6-3.5c-1.1-1.6-1.6-3.8-1.6-5.8
				c0-1.3,0.3-2.6,0.9-3.9c0.6-1.1,1.3-2.2,2.3-3.1s2.2-1.6,3.4-2.1c1.3-0.6,2.6-0.8,4-0.8s3,0.2,4.3,0.8
				C114.5,15.2,115.4,15.6,116.3,16"/>
			<g>
				<path class="st3" d="M124.9,67.3v24.9h-5V76l-6.7,16.2h-3.8L102.8,76v16.2h-5V67.3h5.7l7.9,18.5l7.9-18.5H124.9z"/>
				<path class="st3" d="M134.8,67.3v24.9h-5V67.3H134.8z"/>
				<path class="st3" d="M152.6,92.2l-5.5-9.7h-2.4v9.7h-5V67.3h9.3c1.9,0,3.6,0.3,4.9,1c1.4,0.7,2.4,1.6,3,2.7c0.7,1.2,1,2.4,1,3.9
					c0,1.6-0.5,3.1-1.4,4.4s-2.4,2.2-4.2,2.7l5.9,10.1L152.6,92.2L152.6,92.2z M144.7,78.8h4.2c1.4,0,2.4-0.3,3-1s1-1.6,1-2.7
					s-0.3-2-1-2.7c-0.7-0.6-1.7-0.9-3-0.9h-4.2V78.8z"/>
				<path class="st3" d="M177.8,87.5h-9.9l-1.6,4.7H161l8.9-24.9h5.8l8.9,24.9h-5.3L177.8,87.5z M176.5,83.5l-3.6-10.4l-3.6,10.4
					H176.5z"/>
				<path class="st3" d="M215.9,92.2l-5.5-9.7H208v9.7h-5V67.3h9.3c1.9,0,3.6,0.3,4.9,1c1.4,0.7,2.4,1.6,3,2.7c0.7,1.2,1,2.4,1,3.9
					c0,1.6-0.5,3.1-1.4,4.4s-2.4,2.2-4.2,2.7l5.9,10.1L215.9,92.2L215.9,92.2z M208.1,78.8h4.2c1.4,0,2.4-0.3,3-1s1-1.6,1-2.7
					s-0.3-2-1-2.7c-0.7-0.6-1.7-0.9-3-0.9h-4.2V78.8z"/>
				<path class="st3" d="M231,90.8c-1.9-1.1-3.5-2.6-4.6-4.5s-1.7-4.1-1.7-6.6c0-2.4,0.6-4.6,1.7-6.5c1.1-1.9,2.7-3.5,4.6-4.5
					c1.9-1.1,4.1-1.6,6.4-1.6c2.4,0,4.5,0.5,6.4,1.6s3.5,2.6,4.6,4.5s1.7,4.1,1.7,6.5s-0.6,4.6-1.7,6.6c-1.1,1.9-2.7,3.5-4.6,4.5
					c-1.9,1.1-4.1,1.6-6.4,1.6S233,91.9,231,90.8z M241.4,87c1.1-0.7,2-1.6,2.7-2.9c0.6-1.3,1-2.7,1-4.4c0-1.7-0.3-3.1-1-4.4
					c-0.6-1.2-1.5-2.2-2.7-2.9c-1.1-0.7-2.5-1-4-1s-2.8,0.3-4,1s-2,1.6-2.7,2.9c-0.6,1.2-1,2.7-1,4.4c0,1.7,0.3,3.1,1,4.4
					c0.6,1.3,1.5,2.2,2.7,2.9c1.2,0.7,2.5,1,4,1S240.3,87.6,241.4,87z"/>
				<path class="st3" d="M269.1,87.5h-9.9l-1.6,4.7h-5.2l8.9-24.9h5.8l8.9,24.9h-5.3L269.1,87.5z M267.8,83.5l-3.6-10.4l-3.6,10.4
					H267.8z"/>
				<path class="st3" d="M295,68.9c2,1,3.5,2.5,4.6,4.4s1.6,4.1,1.6,6.6s-0.5,4.7-1.6,6.5c-1.1,1.9-2.6,3.3-4.6,4.3
					s-4.3,1.5-6.9,1.5h-8.7V67.3h8.7C290.7,67.3,293,67.8,295,68.9z M294,85.8c1.4-1.4,2.1-3.4,2.1-6s-0.7-4.6-2.1-6.1
					s-3.4-2.2-6.1-2.2h-3.5v16.4h3.5C290.5,87.9,292.5,87.2,294,85.8z"/>
			</g>
		</g>
	</g>
	<line class="st4" x1="97.8" y1="59" x2="301.2" y2="59"/>
</g>
</svg>
